<svg width="14" height="14" viewBox="0 0 14 14" fill="none" xmlns="http://www.w3.org/2000/svg">
<path d="M10.5859 6.19219L6.63588 2.24219C6.45372 2.05359 6.35293 1.80099 6.3552 1.53879C6.35748 1.27659 6.46265 1.02578 6.64806 0.840371C6.83347 0.654963 7.08428 0.549794 7.34648 0.547516C7.60867 0.545237 7.86128 0.646032 8.04988 0.82819L13.7069 6.48519C13.8001 6.57784 13.874 6.688 13.9245 6.80934C13.9749 6.93067 14.0009 7.06078 14.0009 7.19219C14.0009 7.3236 13.9749 7.45371 13.9245 7.57504C13.874 7.69638 13.8001 7.80654 13.7069 7.89919L8.04988 13.5562C7.95763 13.6517 7.84729 13.7279 7.72528 13.7803C7.60328 13.8327 7.47206 13.8603 7.33928 13.8614C7.2065 13.8626 7.07482 13.8373 6.95192 13.787C6.82903 13.7367 6.71738 13.6625 6.62348 13.5686C6.52959 13.4747 6.45534 13.363 6.40506 13.2401C6.35477 13.1172 6.32947 12.9856 6.33063 12.8528C6.33178 12.72 6.35937 12.5888 6.41178 12.4668C6.46419 12.3448 6.54037 12.2344 6.63588 12.1422L10.5859 8.19219H0.999878C0.734661 8.19219 0.480308 8.08683 0.292771 7.8993C0.105235 7.71176 -0.00012207 7.45741 -0.00012207 7.19219C-0.00012207 6.92697 0.105235 6.67262 0.292771 6.48508C0.480308 6.29755 0.734661 6.19219 0.999878 6.19219H10.5859Z" fill="#FF9F31"/>
</svg>
