<svg width="28" height="25" viewBox="0 0 28 25" fill="none" xmlns="http://www.w3.org/2000/svg">
<path d="M0.926432 8.49201C0.925729 7.44162 1.13223 6.4014 1.53412 5.43093C1.93601 4.46045 2.52538 3.57879 3.2685 2.83642C4.01161 2.09405 4.89386 1.50555 5.86474 1.10464C6.83561 0.703721 7.87604 0.498257 8.92643 0.500011H19.5931C24.0104 0.500011 27.5931 4.09335 27.5931 8.49201V24.5H8.92643C4.5091 24.5 0.926432 20.9067 0.926432 16.508V8.49201ZM24.9264 21.8333V8.49201C24.9229 7.07934 24.3596 5.72566 23.36 4.7275C22.3603 3.72934 21.0058 3.16808 19.5931 3.16668H8.92643C8.22623 3.16492 7.53257 3.30141 6.88523 3.56831C6.23789 3.83522 5.6496 4.22728 5.15411 4.72203C4.65862 5.21678 4.26567 5.80447 3.9978 6.45141C3.72992 7.09835 3.59239 7.79181 3.5931 8.49201V16.508C3.59663 17.9207 4.15992 19.2744 5.15957 20.2725C6.15923 21.2707 7.51376 21.8319 8.92643 21.8333H24.9264ZM16.9264 11.1667H19.5931V13.8333H16.9264V11.1667ZM8.92643 11.1667H11.5931V13.8333H8.92643V11.1667Z" fill="#979797"/>
</svg>
