<svg width="27" height="27" viewBox="0 0 27 27" fill="none" xmlns="http://www.w3.org/2000/svg">
<path d="M13.5 26.8333C6.13596 26.8333 0.166626 20.864 0.166626 13.5C0.166626 6.13596 6.13596 0.166626 13.5 0.166626C20.864 0.166626 26.8333 6.13596 26.8333 13.5C26.8333 20.864 20.864 26.8333 13.5 26.8333ZM13.5 24.1666C16.3289 24.1666 19.042 23.0428 21.0424 21.0424C23.0428 19.042 24.1666 16.3289 24.1666 13.5C24.1666 10.671 23.0428 7.95788 21.0424 5.95749C19.042 3.9571 16.3289 2.83329 13.5 2.83329C10.671 2.83329 7.95788 3.9571 5.95749 5.95749C3.9571 7.95788 2.83329 10.671 2.83329 13.5C2.83329 16.3289 3.9571 19.042 5.95749 21.0424C7.95788 23.0428 10.671 24.1666 13.5 24.1666ZM6.83329 12.8333L18.8333 8.16663L14.1666 20.1693L12.1666 14.8333L6.83329 12.8333Z"/>
</svg>
