<svg width="27" height="27" viewBox="0 0 27 27" fill="none" xmlns="http://www.w3.org/2000/svg">
<path d="M7.17295 11.3265C6.93361 12.0261 6.81196 12.7606 6.81295 13.5C6.81295 14.3257 6.96145 15.1166 7.23595 15.8468C7.57808 16.7593 8.11547 17.5861 8.81054 18.2693C9.50561 18.9524 10.3416 19.4754 11.2599 19.8017C12.1783 20.128 13.1568 20.2497 14.1271 20.1583C15.0974 20.0668 16.036 19.7645 16.8772 19.2724L16.8783 19.2724C18.2036 18.4954 19.2219 17.2869 19.7628 15.849L13.7475 15.849L13.7475 11.3985L24.5531 11.3985C24.8326 12.8705 24.8157 14.3835 24.5036 15.849C23.9627 18.3824 22.5639 20.6514 20.5436 22.2727C18.5481 23.8796 16.062 24.754 13.5 24.75C11.5683 24.7511 9.66891 24.2547 7.98479 23.3086C6.30067 22.3625 4.88859 20.9986 3.88459 19.3484C2.88059 17.6982 2.3185 15.8172 2.25249 13.8866C2.18648 11.9561 2.61877 10.0411 3.5077 8.32613C4.45604 6.49453 5.88976 4.95896 7.65206 3.88733C9.41437 2.8157 11.4374 2.24928 13.5 2.25C16.2292 2.25 18.7323 3.222 20.6808 4.83975L17.0358 7.82325C16.182 7.29184 15.2193 6.95974 14.2194 6.85163C13.2195 6.74352 12.2081 6.86219 11.2604 7.19881C10.3127 7.53543 9.45307 8.08135 8.74541 8.79597C8.03775 9.5106 7.50028 10.3755 7.17295 11.3265Z" fill="#DB4437"/>
</svg>
