<svg  viewBox="0 0 32 33" fill="none" xmlns="http://www.w3.org/2000/svg">
<path d="M28 27.1667C28 27.5203 27.8595 27.8594 27.6095 28.1095C27.3594 28.3595 27.0203 28.5 26.6667 28.5H5.33333C4.97971 28.5 4.64057 28.3595 4.39052 28.1095C4.14048 27.8594 4 27.5203 4 27.1667V13.1533C3.99986 12.9501 4.04616 12.7496 4.13535 12.5671C4.22455 12.3845 4.35429 12.2248 4.51467 12.1L15.1813 3.804C15.4154 3.62192 15.7035 3.52307 16 3.52307C16.2965 3.52307 16.5846 3.62192 16.8187 3.804L27.4853 12.1C27.6457 12.2248 27.7754 12.3845 27.8646 12.5671C27.9538 12.7496 28.0001 12.9501 28 13.1533V27.1667ZM25.3333 25.8333V13.804L16 6.54533L6.66667 13.804V25.8333H25.3333Z" />
</svg>
