<svg  viewBox="0 0 33 33" fill="none" xmlns="http://www.w3.org/2000/svg">
<path d="M28.2598 27.1667C28.2598 27.5203 28.1193 27.8594 27.8692 28.1095C27.6192 28.3595 27.2801 28.5 26.9264 28.5H5.5931C5.23948 28.5 4.90034 28.3595 4.65029 28.1095C4.40024 27.8594 4.25977 27.5203 4.25977 27.1667V13.1533C4.25962 12.9501 4.30592 12.7496 4.39512 12.5671C4.48432 12.3845 4.61406 12.2248 4.77443 12.1L15.4411 3.804C15.6752 3.62192 15.9632 3.52307 16.2598 3.52307C16.5563 3.52307 16.8444 3.62192 17.0784 3.804L27.7451 12.1C27.9055 12.2248 28.0352 12.3845 28.1244 12.5671C28.2136 12.7496 28.2599 12.9501 28.2598 13.1533V27.1667ZM25.5931 25.8333V13.804L16.2598 6.54533L6.92643 13.804V25.8333H25.5931Z" fill="#FFD31D"/>
</svg>
