<svg width="24" height="24" viewBox="0 0 24 24" fill="none" xmlns="http://www.w3.org/2000/svg">
<path d="M5.763 17.0001H20V5.00012H4V18.3851L5.763 17.0001ZM6.455 19.0001L2 22.5001V4.00012C2 3.73491 2.10536 3.48055 2.29289 3.29302C2.48043 3.10548 2.73478 3.00012 3 3.00012H21C21.2652 3.00012 21.5196 3.10548 21.7071 3.29302C21.8946 3.48055 22 3.73491 22 4.00012V18.0001C22 18.2653 21.8946 18.5197 21.7071 18.7072C21.5196 18.8948 21.2652 19.0001 21 19.0001H6.455ZM11 14.0001H13V16.0001H11V14.0001ZM8.567 8.81312C8.69692 8.16291 9.00882 7.56297 9.4664 7.0831C9.92397 6.60323 10.5084 6.26316 11.1517 6.10248C11.795 5.9418 12.4707 5.9671 13.1002 6.17544C13.7297 6.38378 14.287 6.7666 14.7075 7.27934C15.1279 7.79209 15.394 8.41368 15.475 9.07178C15.5559 9.72988 15.4483 10.3974 15.1646 10.9968C14.881 11.5961 14.433 12.1026 13.8727 12.4572C13.3125 12.8119 12.6631 13.0001 12 13.0001H11V11.0001H12C12.2841 11.0001 12.5623 10.9194 12.8023 10.7675C13.0423 10.6155 13.2343 10.3985 13.3558 10.1417C13.4773 9.88492 13.5234 9.59892 13.4887 9.31697C13.454 9.03501 13.34 8.76871 13.1598 8.54903C12.9797 8.32936 12.7409 8.16535 12.4712 8.07609C12.2015 7.98683 11.912 7.97599 11.6364 8.04483C11.3608 8.11367 11.1104 8.25935 10.9144 8.46494C10.7183 8.67052 10.5847 8.92755 10.529 9.20612L8.567 8.81312Z" fill="#3F3D56"/>
</svg>
