<svg width="24" height="24" viewBox="0 0 24 24" fill="none" xmlns="http://www.w3.org/2000/svg">
<path d="M19 22.0001H5C4.20435 22.0001 3.44129 21.6841 2.87868 21.1214C2.31607 20.5588 2 19.7958 2 19.0001V3.00012C2 2.73491 2.10536 2.48055 2.29289 2.29302C2.48043 2.10548 2.73478 2.00012 3 2.00012H17C17.2652 2.00012 17.5196 2.10548 17.7071 2.29302C17.8946 2.48055 18 2.73491 18 3.00012V15.0001H22V19.0001C22 19.7958 21.6839 20.5588 21.1213 21.1214C20.5587 21.6841 19.7956 22.0001 19 22.0001ZM18 17.0001V19.0001C18 19.2653 18.1054 19.5197 18.2929 19.7072C18.4804 19.8948 18.7348 20.0001 19 20.0001C19.2652 20.0001 19.5196 19.8948 19.7071 19.7072C19.8946 19.5197 20 19.2653 20 19.0001V17.0001H18ZM16 20.0001V4.00012H4V19.0001C4 19.2653 4.10536 19.5197 4.29289 19.7072C4.48043 19.8948 4.73478 20.0001 5 20.0001H16ZM6 7.00012H14V9.00012H6V7.00012ZM6 11.0001H14V13.0001H6V11.0001ZM6 15.0001H11V17.0001H6V15.0001Z" fill="#3F3D56"/>
</svg>
