<svg width="24" height="25" viewBox="0 0 24 25" fill="none" xmlns="http://www.w3.org/2000/svg">
<g clip-path="url(#clip0)">
<path d="M5 18.889H19V11.92C19 8.03704 15.866 4.88904 12 4.88904C8.134 4.88904 5 8.03704 5 11.92V18.889ZM12 2.88904C16.97 2.88904 21 6.93204 21 11.92V20.889H3V11.92C3 6.93204 7.03 2.88904 12 2.88904ZM9.5 21.889H14.5C14.5 22.5521 14.2366 23.188 13.7678 23.6568C13.2989 24.1256 12.663 24.389 12 24.389C11.337 24.389 10.7011 24.1256 10.2322 23.6568C9.76339 23.188 9.5 22.5521 9.5 21.889Z" fill="#FF9F31"/>
</g>
<defs>
<clipPath id="clip0">
<rect width="24" height="24" fill="white" transform="translate(0 0.889038)"/>
</clipPath>
</defs>
</svg>
