<svg width="24" height="24" viewBox="0 0 24 24" fill="none" xmlns="http://www.w3.org/2000/svg">
<path d="M12 1.00012L20.217 2.82612C20.4391 2.87549 20.6377 2.99909 20.78 3.17653C20.9224 3.35397 21 3.57464 21 3.80212V13.7891C20.9999 14.7769 20.756 15.7493 20.2899 16.6201C19.8238 17.491 19.1499 18.2333 18.328 18.7811L12 23.0001L5.672 18.7811C4.85027 18.2334 4.17646 17.4912 3.71035 16.6206C3.24424 15.7499 3.00024 14.7777 3 13.7901V3.80212C3.00004 3.57464 3.07764 3.35397 3.21999 3.17653C3.36234 2.99909 3.56094 2.87549 3.783 2.82612L12 1.00012ZM12 3.04912L5 4.60412V13.7891C5.00001 14.4476 5.16257 15.0959 5.47326 15.6764C5.78395 16.257 6.23315 16.7518 6.781 17.1171L12 20.5971L17.219 17.1171C17.7667 16.7519 18.2158 16.2572 18.5265 15.6769C18.8372 15.0965 18.9998 14.4484 19 13.7901V4.60412L12 3.05012V3.04912ZM12 7.00012C12.4403 6.99992 12.8684 7.14505 13.2179 7.41298C13.5673 7.68092 13.8186 8.05669 13.9326 8.48199C14.0467 8.9073 14.0172 9.35836 13.8488 9.76521C13.6803 10.1721 13.3823 10.5119 13.001 10.7321L13 15.0001H11V10.7321C10.6187 10.512 10.3208 10.1722 10.1523 9.76544C9.98384 9.35869 9.95429 8.90773 10.0682 8.48248C10.1822 8.05723 10.4333 7.68146 10.7825 7.41344C11.1318 7.14542 11.5597 7.00014 12 7.00012Z" fill="#FFD31D"/>
</svg>
