<svg  viewBox="0 0 33 33" fill="none" xmlns="http://www.w3.org/2000/svg">
<path d="M6.92643 24.5H25.5931V15.208C25.5931 10.0307 21.4144 5.83332 16.2598 5.83332C11.1051 5.83332 6.92643 10.0307 6.92643 15.208V24.5ZM16.2598 3.16666C22.8864 3.16666 28.2598 8.55732 28.2598 15.208V27.1667H4.25977V15.208C4.25977 8.55732 9.6331 3.16666 16.2598 3.16666ZM12.9264 28.5H19.5931C19.5931 29.384 19.2419 30.2319 18.6168 30.857C17.9917 31.4821 17.1438 31.8333 16.2598 31.8333C15.3757 31.8333 14.5279 31.4821 13.9027 30.857C13.2776 30.2319 12.9264 29.384 12.9264 28.5Z"/>
</svg>
