<svg viewBox="0 0 32 33" fill="none" xmlns="http://www.w3.org/2000/svg">
<path d="M6.66667 24.5H25.3333V15.208C25.3333 10.0307 21.1547 5.83332 16 5.83332C10.8453 5.83332 6.66667 10.0307 6.66667 15.208V24.5ZM16 3.16666C22.6267 3.16666 28 8.55732 28 15.208V27.1667H4V15.208C4 8.55732 9.37333 3.16666 16 3.16666ZM12.6667 28.5H19.3333C19.3333 29.384 18.9821 30.2319 18.357 30.857C17.7319 31.4821 16.8841 31.8333 16 31.8333C15.1159 31.8333 14.2681 31.4821 13.643 30.857C13.0179 30.2319 12.6667 29.384 12.6667 28.5Z" fill="#FFD31D"/>
</svg>
