<svg width="24" height="24" viewBox="0 0 24 24" fill="none" xmlns="http://www.w3.org/2000/svg">
<path d="M12 0.400955C18.4435 0.400955 23.6666 5.62412 23.6666 12.0676C23.6666 18.5111 18.4435 23.7343 12 23.7343C5.55648 23.7343 0.333313 18.5111 0.333313 12.0676H2.66665C2.66665 17.222 6.84565 21.401 12 21.401C17.1543 21.401 21.3333 17.222 21.3333 12.0676C21.3333 6.91329 17.1543 2.73429 12 2.73429C8.79165 2.73429 5.96131 4.35246 4.28248 6.81762H7.33331V9.15096H0.333313V2.15096H2.66665V5.06762C4.79465 2.23262 8.18381 0.400955 12 0.400955ZM13.1666 6.23429V11.5835L16.9501 15.367L15.2993 17.0178L10.8333 12.5495V6.23429H13.1666Z" fill="#FF9F31"/>
</svg>
