<svg  viewBox="0 0 33 33" fill="none" xmlns="http://www.w3.org/2000/svg">
<path d="M24.3011 22.656L30.0118 28.3653L28.1251 30.252L22.4158 24.5413C20.2914 26.2443 17.6491 27.1705 14.9264 27.1667C8.30242 27.1667 2.92642 21.7907 2.92642 15.1667C2.92642 8.54266 8.30242 3.16666 14.9264 3.16666C21.5504 3.16666 26.9264 8.54266 26.9264 15.1667C26.9303 17.8893 26.0041 20.5316 24.3011 22.656ZM21.6264 21.6667C23.3186 19.9265 24.2636 17.5939 24.2598 15.1667C24.2598 10.0093 20.0824 5.83332 14.9264 5.83332C9.76909 5.83332 5.59309 10.0093 5.59309 15.1667C5.59309 20.3227 9.76909 24.5 14.9264 24.5C17.3537 24.5038 19.6863 23.5588 21.4264 21.8667L21.6264 21.6667Z" fill="#979797"/>
</svg>
