<svg viewBox="0 0 32 33" fill="none" xmlns="http://www.w3.org/2000/svg">
<path d="M24.0413 22.656L29.752 28.3654L27.8653 30.252L22.156 24.5414C20.0317 26.2443 17.3893 27.1706 14.6667 27.1667C8.04267 27.1667 2.66667 21.7907 2.66667 15.1667C2.66667 8.54269 8.04267 3.16669 14.6667 3.16669C21.2907 3.16669 26.6667 8.54269 26.6667 15.1667C26.6705 17.8894 25.7443 20.5317 24.0413 22.656ZM21.3667 21.6667C23.0588 19.9265 24.0038 17.5939 24 15.1667C24 10.0094 19.8227 5.83335 14.6667 5.83335C9.50934 5.83335 5.33334 10.0094 5.33334 15.1667C5.33334 20.3227 9.50934 24.5 14.6667 24.5C17.0939 24.5038 19.4265 23.5588 21.1667 21.8667L21.3667 21.6667Z" fill="#FFD31D"/>
</svg>
