<svg width="35" height="35" viewBox="0 0 35 35" fill="none" xmlns="http://www.w3.org/2000/svg">
<path d="M0 17.1431C0 15.6294 0.1925 14.1629 0.553 12.7611C1.51981 12.8119 2.48185 12.5944 3.33277 12.1326C4.18369 11.6708 4.89034 10.9827 5.37461 10.1444C5.85888 9.30609 6.10191 8.35017 6.07683 7.38235C6.05175 6.41453 5.75954 5.47248 5.2325 4.66036C7.34815 2.57886 9.95889 1.07023 12.8188 0.276611C13.258 1.14019 13.9276 1.86538 14.7535 2.3719C15.5794 2.87843 16.5294 3.14653 17.4983 3.14653C18.4671 3.14653 19.4171 2.87843 20.243 2.3719C21.0689 1.86538 21.7385 1.14019 22.1778 0.276611C25.0376 1.07023 27.6484 2.57886 29.764 4.66036C29.2364 5.47263 28.9437 6.41503 28.9185 7.3833C28.8932 8.35157 29.1363 9.30795 29.6208 10.1466C30.1054 10.9853 30.8125 11.6736 31.664 12.1353C32.5154 12.5971 33.478 12.8143 34.4453 12.7629C34.8058 14.1629 34.9983 15.6294 34.9983 17.1431C34.9983 18.6569 34.8058 20.1234 34.4453 21.5251C33.4783 21.4739 32.516 21.6912 31.6648 22.1529C30.8137 22.6145 30.1067 23.3026 29.6223 24.141C29.1378 24.9794 28.8946 25.9354 28.9196 26.9034C28.9446 27.8714 29.2369 28.8136 29.764 29.6259C27.6484 31.7074 25.0376 33.216 22.1778 34.0096C21.7385 33.146 21.0689 32.4208 20.243 31.9143C19.4171 31.4078 18.4671 31.1397 17.4983 31.1397C16.5294 31.1397 15.5794 31.4078 14.7535 31.9143C13.9276 32.4208 13.258 33.146 12.8188 34.0096C9.95889 33.216 7.34815 31.7074 5.2325 29.6259C5.76014 28.8136 6.05278 27.8712 6.07804 26.9029C6.10331 25.9347 5.86022 24.9783 5.37567 24.1396C4.89112 23.3009 4.18399 22.6126 3.33254 22.1509C2.48108 21.6891 1.51848 21.472 0.55125 21.5234C0.1925 20.1251 0 18.6586 0 17.1431ZM8.407 22.3931C9.5095 24.3024 9.8245 26.4986 9.394 28.5601C10.108 29.0676 10.8675 29.5069 11.6638 29.8726C13.2679 28.4356 15.3463 27.6416 17.5 27.6431C19.705 27.6431 21.7665 28.4674 23.3363 29.8726C24.1325 29.5069 24.892 29.0676 25.606 28.5601C25.164 26.4531 25.5155 24.257 26.593 22.3931C27.6686 20.5283 29.3948 19.1261 31.4405 18.4556C31.5214 17.5825 31.5214 16.7037 31.4405 15.8306C29.3941 15.1605 27.6673 13.7583 26.5913 11.8931C25.5137 10.0292 25.1623 7.83317 25.6043 5.72611C24.8905 5.21848 24.1305 4.77904 23.3345 4.41361C21.7308 5.85024 19.6531 6.64418 17.5 6.64311C15.3463 6.64461 13.2679 5.85065 11.6638 4.41361C10.8677 4.77905 10.1078 5.21849 9.394 5.72611C9.83599 7.83317 9.48452 10.0292 8.407 11.8931C7.3314 13.758 5.60522 15.1601 3.5595 15.8306C3.47857 16.7037 3.47857 17.5825 3.5595 18.4556C5.60587 19.1258 7.33273 20.5279 8.40875 22.3931H8.407ZM17.5 22.3931C16.1076 22.3931 14.7723 21.84 13.7877 20.8554C12.8031 19.8709 12.25 18.5355 12.25 17.1431C12.25 15.7507 12.8031 14.4154 13.7877 13.4308C14.7723 12.4462 16.1076 11.8931 17.5 11.8931C18.8924 11.8931 20.2277 12.4462 21.2123 13.4308C22.1969 14.4154 22.75 15.7507 22.75 17.1431C22.75 18.5355 22.1969 19.8709 21.2123 20.8554C20.2277 21.84 18.8924 22.3931 17.5 22.3931ZM17.5 18.8931C17.9641 18.8931 18.4092 18.7087 18.7374 18.3805C19.0656 18.0524 19.25 17.6072 19.25 17.1431C19.25 16.679 19.0656 16.2339 18.7374 15.9057C18.4092 15.5775 17.9641 15.3931 17.5 15.3931C17.0359 15.3931 16.5908 15.5775 16.2626 15.9057C15.9344 16.2339 15.75 16.679 15.75 17.1431C15.75 17.6072 15.9344 18.0524 16.2626 18.3805C16.5908 18.7087 17.0359 18.8931 17.5 18.8931Z" fill="#FFD31D"/>
</svg>
