<svg width="35" height="35" viewBox="0 0 25 24" fill="none" xmlns="http://www.w3.org/2000/svg">
<path d="M11.4595 10.8843V6.21761H13.7929V10.8843H18.4595V13.2176H13.7929V17.8843H11.4595V13.2176H6.79287V10.8843H11.4595ZM12.6262 23.7176C6.1827 23.7176 0.959534 18.4944 0.959534 12.0509C0.959534 5.60744 6.1827 0.384277 12.6262 0.384277C19.0697 0.384277 24.2929 5.60744 24.2929 12.0509C24.2929 18.4944 19.0697 23.7176 12.6262 23.7176ZM12.6262 21.3843C15.1016 21.3843 17.4755 20.4009 19.2259 18.6506C20.9762 16.9003 21.9595 14.5263 21.9595 12.0509C21.9595 9.57559 20.9762 7.20162 19.2259 5.45128C17.4755 3.70094 15.1016 2.71761 12.6262 2.71761C10.1508 2.71761 7.77688 3.70094 6.02654 5.45128C4.2762 7.20162 3.29287 9.57559 3.29287 12.0509C3.29287 14.5263 4.2762 16.9003 6.02654 18.6506C7.77688 20.4009 10.1508 21.3843 12.6262 21.3843Z" fill="#FFD31D"/>
</svg>
