<svg width="20" height="19" viewBox="0 0 20 19" fill="none" xmlns="http://www.w3.org/2000/svg">
<path d="M15.9999 4.5354H18.9999C19.2651 4.5354 19.5195 4.64076 19.707 4.82829C19.8946 5.01583 19.9999 5.27018 19.9999 5.5354V17.5354C19.9999 17.8006 19.8946 18.055 19.707 18.2425C19.5195 18.43 19.2651 18.5354 18.9999 18.5354H0.999908C0.734692 18.5354 0.480338 18.43 0.292802 18.2425C0.105265 18.055 -9.15527e-05 17.8006 -9.15527e-05 17.5354V1.5354C-9.15527e-05 1.27018 0.105265 1.01583 0.292802 0.828294C0.480338 0.640757 0.734692 0.5354 0.999908 0.5354H15.9999V4.5354ZM1.99991 6.5354V16.5354H17.9999V6.5354H1.99991ZM1.99991 2.5354V4.5354H13.9999V2.5354H1.99991ZM12.9999 10.5354H15.9999V12.5354H12.9999V10.5354Z" fill="#3F3D56"/>
</svg>
