<svg width="35" height="35" viewBox="0 0 29 29" fill="none" xmlns="http://www.w3.org/2000/svg">
<path d="M25.3818 3.55096C25.6913 3.55096 25.988 3.67388 26.2068 3.89267C26.4256 4.11147 26.5485 4.40821 26.5485 4.71763V23.3843C26.5485 23.6937 26.4256 23.9905 26.2068 24.2093C25.988 24.428 25.6913 24.551 25.3818 24.551H4.38185C4.07243 24.551 3.77568 24.428 3.55689 24.2093C3.3381 23.9905 3.21518 23.6937 3.21518 23.3843V4.71763C3.21518 4.40821 3.3381 4.11147 3.55689 3.89267C3.77568 3.67388 4.07243 3.55096 4.38185 3.55096H25.3818ZM5.54851 11.7176V22.2176H24.2152V11.7176H5.54851ZM5.54851 9.3843H24.2152V5.8843H5.54851V9.3843Z" fill="#FFD31D"/>
</svg>
